<svg width="23" height="24" viewBox="0 0 23 24" fill="none" xmlns="http://www.w3.org/2000/svg">
    <path d="M17.6909 0.924711C17.6912 0.741907 17.6395 0.563122 17.5423 0.411022C17.4451 0.258922 17.3069 0.140357 17.145 0.0703564C16.9832 0.000356224 16.8051 -0.017926 16.6333 0.0178273C16.4615 0.0535807 16.3037 0.14176 16.18 0.271185L12.6417 3.96342C12.5596 4.0493 12.4945 4.15122 12.4502 4.26336C12.4059 4.37549 12.3832 4.49565 12.3834 4.61695V9.77315L11.0724 11.1393C10.8102 11.0667 10.5354 11.0578 10.2694 11.1135C10.0034 11.1691 9.7531 11.2877 9.53792 11.4602C9.32273 11.6326 9.14836 11.8544 9.02823 12.1082C8.9081 12.3621 8.84542 12.6413 8.84502 12.9245C8.84514 13.1872 8.89899 13.4469 9.00299 13.6861C9.10698 13.9254 9.25872 14.1388 9.44806 14.3119C9.6374 14.4851 9.85999 14.6141 10.1009 14.6903C10.3419 14.7666 10.5957 14.7882 10.8453 14.7539C11.0949 14.7196 11.3346 14.6301 11.5484 14.4914C11.7622 14.3526 11.9452 14.1679 12.0851 13.9494C12.225 13.731 12.3186 13.4839 12.3597 13.2247C12.4007 12.9655 12.3883 12.7001 12.3232 12.4463L13.6342 11.0784H18.5755C18.6917 11.0786 18.8069 11.0549 18.9143 11.0086C19.0218 10.9624 19.1195 10.8945 19.2018 10.8088L22.7401 7.11659C22.8641 6.98749 22.9487 6.82287 22.9829 6.6436C23.0172 6.46432 22.9997 6.27847 22.9326 6.1096C22.8655 5.94073 22.7519 5.79645 22.6061 5.69504C22.4603 5.59364 22.289 5.53968 22.1138 5.54H17.6909V0.924711ZM21.1302 11.407C21.4346 13.7057 21.0395 16.0461 20.0006 18.0979C18.9617 20.1497 17.3315 21.8092 15.3401 22.8421C13.3487 23.8751 11.0967 24.2293 8.90197 23.8548C6.70726 23.4803 4.6807 22.396 3.10835 20.7549C1.536 19.1139 0.497283 16.999 0.13882 14.7087C-0.219644 12.4185 0.120253 10.0686 1.11053 7.99085C2.10081 5.91305 3.69145 4.21226 5.65792 3.12857C7.62439 2.04489 9.86737 1.63303 12.0702 1.95115L11.3926 2.65821C11.1459 2.91533 10.9502 3.22066 10.8166 3.55675C10.6831 3.89284 10.6143 4.2531 10.6142 4.61695C9.0396 4.61695 7.50037 5.10417 6.19114 6.01702C4.88192 6.92986 3.8615 8.22732 3.25893 9.74532C2.65636 11.2633 2.4987 12.9337 2.80589 14.5452C3.11308 16.1567 3.87131 17.637 4.98472 18.7988C6.09813 19.9606 7.51669 20.7518 9.06103 21.0724C10.6054 21.3929 12.2061 21.2284 13.6608 20.5996C15.1156 19.9709 16.359 18.9061 17.2338 17.5399C18.1086 16.1737 18.5755 14.5675 18.5755 12.9245C19.2791 12.9238 19.9536 12.6317 20.4508 12.1122L21.1302 11.407ZM10.6142 6.46306C9.38951 6.46306 8.19233 6.84202 7.17405 7.55201C6.15576 8.262 5.3621 9.27113 4.89343 10.4518C4.42477 11.6325 4.30214 12.9316 4.54107 14.185C4.77999 15.4384 5.36973 16.5897 6.23571 17.4934C7.1017 18.397 8.20503 19.0124 9.40618 19.2617C10.6073 19.511 11.8524 19.3831 12.9838 18.894C14.1153 18.405 15.0824 17.5768 15.7627 16.5142C16.4431 15.4517 16.8063 14.2024 16.8063 12.9245H14.3666L14.1455 13.1552C14.1029 13.8645 13.8652 14.5458 13.4607 15.1175C13.0563 15.6892 12.5023 16.127 11.8653 16.3783C11.2283 16.6296 10.5354 16.6838 9.8696 16.5342C9.20384 16.3847 8.59358 16.0379 8.11204 15.5355C7.6305 15.033 7.29815 14.3962 7.15488 13.7015C7.0116 13.0067 7.06349 12.2837 7.30431 11.619C7.54514 10.9543 7.96466 10.3762 8.51254 9.95415C9.06042 9.5321 9.71338 9.284 10.3931 9.23962L10.6142 9.00886V6.46306Z" fill="black" fill-opacity="0.5"/>
</svg>

