<svg width="116" height="105" viewBox="0 0 116 105" fill="none" xmlns="http://www.w3.org/2000/svg">
    <path d="M23.5479 61.7158C23.5479 61.1004 20.6246 61.1387 16.8198 61.1387C13.015 61.1387 9.7821 62.0238 9.7821 62.6392C9.7821 63.2546 12.8561 63.7545 16.6661 63.7545C20.4762 63.7545 23.5479 62.3312 23.5479 61.7158Z" fill="black"/>
    <path d="M14.6228 48.9088C14.6228 48.8699 14.5839 48.8316 14.5839 48.7928C14.3148 47.9465 14.8536 47.8311 15.5456 48.1391C16.1609 48.4082 16.8917 49.3699 17.5454 49.2156C18.507 48.9836 17.8934 47.8694 17.4688 47.4083C16.738 46.5238 16.0072 45.7159 15.3536 44.7931C14.9302 44.1777 14.5456 43.3315 15.0456 42.7927C15.6256 42.1779 16.6609 42.6767 17.238 43.2567C17.8145 43.872 18.5453 44.6028 19.3533 44.372C20.0452 43.3338 19.3533 41.9493 18.4688 41.1031C17.5843 40.2186 16.4689 39.4878 16.0838 38.3336C15.8147 37.5262 16.1609 36.4109 17.0072 36.2955C17.3166 36.3029 17.6169 36.4018 17.8701 36.5798C18.1233 36.7578 18.3181 37.0068 18.4299 37.2954C18.6343 37.883 18.9191 38.4395 19.2761 38.949C19.6607 39.413 20.4686 39.6798 20.9303 39.257C21.0478 39.1214 21.133 38.9611 21.1796 38.7879C21.2262 38.6147 21.233 38.4332 21.1994 38.257C21.0116 37.3199 20.526 36.4685 19.8149 35.8297C19.1105 35.184 18.5699 34.3798 18.2379 33.4836C17.9688 32.5609 18.3539 31.4072 19.2378 31.1375C19.68 31.0534 20.1376 31.1368 20.5216 31.3717C20.9055 31.6065 21.1883 31.9758 21.3148 32.4077C21.584 33.1768 21.6222 34.2922 22.4302 34.4459C23.1993 34.5996 23.6992 33.6768 23.7375 32.9077C23.8146 31.5232 23.1993 30.1771 23.0456 28.7926C22.8919 27.4081 23.353 25.7186 24.6609 25.3311C25.7762 24.9831 27.0452 25.7951 27.5069 26.8693C27.9043 27.9939 27.8769 29.225 27.4298 30.3308C27.0452 31.4461 26.507 32.5232 26.1607 33.6368C26.0999 33.7707 26.0716 33.9172 26.0783 34.0642C26.0849 34.2112 26.1263 34.3545 26.199 34.4824C26.4681 34.8304 27.0835 34.675 27.3915 34.3287C27.6995 33.9824 27.8555 33.5213 28.1989 33.2522C28.9297 32.6751 30.1222 33.2905 30.353 34.2133C30.4278 34.6759 30.374 35.1501 30.1975 35.5842C30.0211 36.0183 29.7288 36.3956 29.3525 36.6748C28.6096 37.2313 27.8111 37.7094 26.9698 38.1016C26.3933 38.409 25.3934 38.9473 25.1237 39.6015C24.5855 40.9088 26.9698 39.5626 27.239 39.3695C27.8932 38.8695 28.9314 38.485 29.4697 39.1375C29.5856 39.3122 29.6538 39.5142 29.6673 39.7234C29.6808 39.9327 29.6393 40.1418 29.5468 40.33C28.7006 42.5989 24.9317 42.5989 24.0855 44.8679C24.7392 45.1759 25.5082 44.7519 26.1236 44.3679C26.739 43.984 27.6241 43.7143 28.1623 44.2142C29.2005 45.2142 27.8932 46.4832 27.047 47.0603C25.8934 47.8294 24.0472 47.6403 23.2393 48.7528C23.1648 48.8256 23.1078 48.9145 23.0726 49.0126C23.0373 49.1107 23.0249 49.2155 23.036 49.3191C23.0472 49.4228 23.0817 49.5225 23.137 49.6109C23.1923 49.6992 23.2669 49.7739 23.3553 49.8292C23.6286 49.9699 23.9462 49.9976 24.2398 49.9064C25.1631 49.7527 26.2396 49.7138 26.2013 51.0217C26.2013 51.9062 25.4705 52.5216 24.8169 53.0216C23.3936 54.0986 20.3555 56.0985 18.4711 55.214C16.4718 54.0998 15.2382 50.9469 14.6228 48.9088Z" fill="#FF465A"/>
    <path d="M18.5841 65.6001C17.2762 58.0601 19.4686 51.0241 21.5839 44.2166C23.2757 38.717 25.0453 33.0226 24.9682 27.1019H25.3916C25.5076 33.1015 23.6991 38.7936 22.0067 44.332C19.8937 51.1012 17.7379 58.0624 19.0452 65.5259L18.5841 65.6001Z" fill="white"/>
    <path d="M7.27645 56.7545C7.23285 56.7066 7.18073 56.6673 7.12275 56.6385C6.23825 55.8311 6.81535 55.3312 7.77641 55.2157C8.66149 55.0997 10.1614 55.7157 10.8533 55.0997C11.8532 54.1764 10.3151 53.3302 9.50713 53.0228C8.08439 52.4845 6.66107 52.0611 5.23832 51.4457C4.35382 51.0258 3.31504 50.2933 3.5076 49.3316C3.7396 48.2163 5.2766 48.1009 6.39195 48.37C7.50729 48.6391 8.85347 49.0242 9.62255 48.178C9.69969 46.5244 7.96897 45.3702 6.35367 44.9474C4.73836 44.5246 2.93166 44.4474 1.69974 43.3704C0.815233 42.6013 0.468973 41.0631 1.39175 40.3706C2.08428 39.8706 3.04534 40.1386 3.77614 40.5626C4.4265 41.1029 5.13614 41.5675 5.8914 41.9476C6.69935 42.2168 7.77583 41.9859 8.00667 41.178C8.04604 40.9331 8.03207 40.6827 7.9657 40.4437C7.89933 40.2048 7.78213 39.983 7.62213 39.7935C6.85305 38.7553 5.584 38.2936 4.35324 37.9091C3.12248 37.5245 1.85344 37.1783 0.931234 36.2938C0.00903161 35.4093 -0.376089 33.794 0.467233 32.8323C1.27517 31.9478 2.8522 32.1015 3.77324 32.9095C4.61946 33.6403 5.4274 34.871 6.46561 34.5248C7.46553 34.1768 7.42725 32.7552 6.92961 31.8324C6.04452 30.1788 4.46808 29.0246 3.31388 27.5247C2.15968 26.0249 1.58316 23.7547 2.81392 22.3714C3.89098 21.1789 5.89082 21.2561 7.15987 22.2171C8.37908 23.267 9.19501 24.7083 9.46769 26.294C9.81569 27.8327 9.89109 29.448 10.2368 31.025C10.2519 31.2236 10.316 31.4154 10.4234 31.5831C10.5308 31.7508 10.6781 31.8893 10.8522 31.9861C11.4293 32.2181 12.0064 31.6016 12.1212 30.9862C12.1431 30.38 12.2074 29.7761 12.3138 29.1789C12.7778 28.0247 14.5827 27.9093 15.4672 28.7944C16.3517 29.6794 16.3906 31.1399 16.006 32.3324C15.5335 33.5007 14.9268 34.6101 14.1982 35.6384C13.7371 36.4075 12.9291 37.7154 13.0828 38.6764C13.352 40.5997 15.1981 37.3691 15.3907 36.9457C15.8135 35.9075 16.7751 34.7539 17.8133 35.1767C18.0701 35.3036 18.2899 35.4943 18.4518 35.7305C18.6137 35.9667 18.7122 36.2406 18.7379 36.5258C19.315 39.7564 14.9301 42.2945 15.4684 45.5251C16.43 45.4485 17.0071 44.4097 17.5071 43.5641C17.9711 42.7179 18.8144 41.7562 19.7378 41.9871C21.6222 42.4511 21.0068 44.8331 20.4303 46.0639C19.6224 47.7175 17.3563 48.7563 17.1243 50.6407C17.0905 50.7784 17.0874 50.9218 17.1154 51.0608C17.1434 51.1997 17.2017 51.3308 17.2862 51.4447C17.3707 51.5585 17.4793 51.6523 17.6042 51.7194C17.7291 51.7864 17.8672 51.8251 18.0088 51.8326C18.4151 51.7964 18.796 51.6196 19.0859 51.3326C20.0469 50.5253 21.2777 49.7562 22.1599 51.2561C22.7399 52.2943 22.3141 53.525 21.8907 54.525C20.968 56.7556 18.8167 61.1787 15.9683 61.4096C13.0457 61.5621 9.43057 58.6778 7.27645 56.7545Z" fill="#FDB849"/>
    <path d="M17.2761 67.5617C16.9096 65.4729 16.3824 63.4155 15.6991 61.4078C15.2351 59.908 14.738 58.3692 14.3918 56.8311C13.9684 54.9466 13.4684 53.0234 12.9684 51.1772C12.4658 49.3418 12.0042 47.4954 11.584 45.6394L11.468 45.1011C9.89154 37.9862 8.27798 30.6011 4.39197 24.2942L4.85597 23.9868C8.7791 30.3708 10.3944 37.7937 11.9708 44.9857L12.0868 45.5245C12.5102 47.3701 13.0102 49.2551 13.4713 51.0241C13.9713 52.8702 14.4712 54.7941 14.8946 56.7162C15.2489 58.2512 15.6853 59.766 16.202 61.2542C16.9205 63.2802 17.461 65.3651 17.8173 67.4851L17.2761 67.5617Z" fill="white"/>
    <path d="M20.3531 89.3685C21.7375 79.8304 22.1992 71.2922 23.5431 61.7158C19.2326 63.7628 14.2948 64.0526 9.77441 62.5238C11.3897 71.1002 12.8484 81.1383 14.466 89.7148C15.93 91.1764 18.8143 90.9838 20.3531 89.3685Z" fill="#643CFF"/>
    <path d="M47.8133 40.5626C52.6959 31.3576 60.7412 24.2277 70.4664 20.487C76.5048 18.1792 83.2734 17.297 89.4655 19.1408C97.7729 21.6406 104.004 28.8327 107.465 36.7555C110.927 44.6783 112.042 53.4467 113.08 62.0621C113.926 68.8313 114.734 75.5616 115.58 82.3302C116.157 87.1379 116.618 92.5609 113.542 96.3297C111.657 98.6375 108.811 99.8677 105.965 100.753C98.6191 103.061 90.8505 103.445 83.1969 103.753C64.8131 104.445 46.4292 104.561 28.0451 104.101C22.3913 103.947 16.43 103.678 11.7378 100.524C9.69968 99.1392 7.93068 97.1777 7.35358 94.755C6.88958 92.7935 7.27644 90.7165 7.89182 88.7549C11.5075 77.4095 22.4301 70.4095 31.1603 62.2558C38.9479 54.9619 45.3007 46.2742 49.8903 36.6418" fill="#14D29B"/>
    <path d="M115.542 82.3301C114.695 75.5615 113.887 68.8312 113.042 62.062C112.003 53.4467 110.888 44.7165 107.426 36.7554C105.157 31.5249 101.658 26.6019 97.1602 23.1787C98.1539 24.6784 99.0161 26.2611 99.7372 27.9092C101.891 32.9094 102.891 38.3324 103.545 43.6783C103.974 47.1874 104.193 50.7192 104.199 54.2546C104.199 56.8698 104.737 61.0986 102.545 63.0236C102.127 63.3905 101.638 63.6684 101.109 63.8403C100.58 64.0122 100.022 64.0745 99.468 64.0236C100.212 64.4924 100.759 65.2173 101.006 66.0617C103.622 72.5618 99.6989 80.292 96.5066 85.9459C93.7759 90.8301 89.8945 94.984 84.6995 97.2913C82.3534 98.3683 65.1615 104.06 66.2003 97.0221C66.1215 97.8529 65.9263 98.6684 65.6203 99.4448C65.0049 100.83 64.005 101.214 62.5823 101.33C54.2624 102.079 45.8887 102.002 37.5842 101.098C34.8536 100.79 32.0847 100.444 29.3923 99.9825C26.969 99.5979 24.2384 99.0591 22.2768 97.5209C21.3923 96.8284 20.7004 95.8674 20.9312 94.7132C21.1232 93.5978 22.4311 92.5979 21.5849 91.4443C20.8541 90.4444 19.2388 90.2135 18.1629 89.7907C17.1719 89.4072 16.1969 88.9837 15.2403 88.5211C13.2787 87.5983 10.9709 86.4447 9.70183 84.5985L9.66355 84.5597C8.95611 85.9045 8.36412 87.3069 7.89397 88.7519C7.27858 90.6752 6.89404 92.7539 7.35572 94.752C7.93283 97.1747 9.66355 99.1362 11.74 100.521C16.4322 103.675 22.3934 103.982 28.0473 104.098C46.431 104.559 64.8149 104.443 83.199 103.75C90.891 103.442 98.6601 103.058 105.968 100.75C108.813 99.8653 111.659 98.6346 113.544 96.3267C116.58 92.5608 116.157 87.1378 115.542 82.3301Z" fill="#008C6E"/>
    <path d="M43.3907 78.7922C41.9493 79.4471 40.7609 80.5542 40.0058 81.9457C39.5058 82.9073 39.1984 83.9844 38.4293 84.7535C36.814 86.3305 33.9291 85.7917 32.2755 87.2916C34.8525 86.7533 37.506 87.5236 39.9315 88.5612C42.3571 89.5988 44.7003 90.8302 47.3155 91.2918C50.3895 91.8301 53.5465 91.1758 56.6999 90.9438C59.8534 90.7118 63.2383 91.0598 65.5844 93.1745C65.3153 90.3667 67.2763 87.8287 69.6224 86.2516C71.9685 84.6746 74.6991 83.6747 76.8533 81.8285C80.1593 79.0213 81.6603 74.6754 83.4299 70.714C85.1995 66.7526 87.2759 63.022 91.4293 61.5221C89.5066 61.3296 88.3524 60.7525 87.4273 59.176C86.5045 57.6373 86.3119 55.754 86.2348 53.9067C86.0745 50.7916 86.126 47.6692 86.3891 44.5611C86.8119 41.2917 87.9655 37.6382 85.5811 36.2149C81.3123 33.6768 66.8511 40.4072 64.505 45.0611C61.3898 51.1761 61.315 58.4452 58.4284 64.6373C55.4669 70.8694 49.6593 75.9462 43.3907 78.7922Z" fill="#008C6E"/>
    <path d="M47.8132 40.5626C48.1612 39.8706 48.5829 39.217 48.9674 38.5244C49.2748 37.9091 49.5828 37.2554 49.8902 36.64L47.8132 40.5626Z" fill="#14D29B"/>
    <path d="M58.4284 81.9074C58.8924 83.7153 59.39 85.5614 60.4665 87.0613C60.9671 87.715 61.6207 88.484 61.3516 89.292C61.1196 90.0994 60.1208 90.3685 59.3129 90.6765C57.4668 91.3684 56.044 92.83 54.5441 94.0985C53.0054 95.3681 51.1221 96.4446 49.1594 96.0983C49.0534 96.0867 48.9509 96.0535 48.8583 96.0006C48.7657 95.9477 48.685 95.8763 48.6212 95.7909C48.3892 95.4064 48.8532 95.0218 49.2012 94.791C51.1239 93.4448 51.9318 91.0604 53.3163 89.176C53.8693 88.5352 54.3348 87.8239 54.7007 87.0607C55.3544 85.4837 54.7779 83.7147 54.2367 82.0994C55.1602 81.8055 56.1158 81.6246 57.0828 81.5606C57.3189 81.5233 57.5601 81.5348 57.7916 81.5945C58.023 81.6542 58.2398 81.7607 58.4284 81.9074Z" fill="#9778FF"/>
    <path d="M49.0058 81.5228C49.0829 83.369 49.1595 85.2928 49.8903 86.9841C50.2383 87.7532 50.6982 88.6377 50.2748 89.3685C49.8514 90.0993 48.8132 90.1376 47.9676 90.253C46.006 90.5227 44.3135 91.6763 42.5445 92.5608C40.7755 93.4453 38.6986 94.1378 36.8907 93.3682C36.7919 93.3384 36.7002 93.2889 36.621 93.2229C36.5417 93.1568 36.4767 93.0754 36.4296 92.9836C36.3136 92.5608 36.8141 92.2917 37.237 92.0991C39.3905 91.2146 40.6984 89.0222 42.4674 87.4841C43.1344 86.964 43.7409 86.3706 44.2753 85.7151C45.2369 84.3306 45.0826 82.4456 44.8907 80.792C45.8656 80.6958 46.8491 80.7349 47.8133 80.908C48.2749 80.9525 48.7018 81.1726 49.0058 81.5228Z" fill="#643CFF"/>
    <path d="M63.2745 5.98753C63.0043 5.57092 62.8297 5.09967 62.7632 4.60759C62.6967 4.11552 62.74 3.61483 62.8899 3.14146C63.2742 2.11127 64.0283 1.26106 65.0052 0.756497C66.3547 0.0153706 67.9338 -0.190457 69.4283 0.179976C70.9218 0.560198 72.2228 1.47768 73.0823 2.75692C73.9668 4.10252 74.2365 6.02581 73.1983 7.29485C72.4292 8.25649 71.083 8.56389 69.8522 8.60275C67.813 8.60275 64.5052 7.83309 63.2745 5.98753Z" fill="black"/>
    <path d="M62.8899 6.7178C64.2361 5.48762 66.2742 5.3722 68.0049 5.91044C69.0201 6.19287 69.9297 6.76798 70.6201 7.56402C70.962 7.95974 71.2035 8.43204 71.324 8.9409C71.4446 9.44976 71.4407 9.98019 71.3127 10.4872C71.1708 10.9888 70.8681 11.4298 70.4512 11.7425C70.0342 12.0552 69.526 12.2222 69.0048 12.2179C68.5501 12.1666 68.1077 12.0365 67.6975 11.8334C66.1882 11.1295 64.7238 10.333 63.3127 9.44844C62.1974 8.7565 61.7363 7.75774 62.8899 6.7178Z" fill="#D70A32"/>
    <path d="M51.1983 19.1409C51.3478 17.4441 51.8616 15.7995 52.7044 14.3194C53.5473 12.8392 54.6995 11.5582 56.0825 10.5638C57.5012 9.56315 59.1127 8.86862 60.8143 8.52433C62.516 8.18004 64.2707 8.19354 65.9668 8.56395C66.9188 8.74788 67.8304 9.09961 68.6592 9.60273C69.9543 10.4905 71.0002 11.6954 71.6972 13.1025C72.5468 14.6653 73.1439 16.3527 73.4662 18.1021C73.8059 20.0091 73.8191 21.9599 73.5051 23.8713C73.4276 24.6048 73.1393 25.3001 72.6753 25.8734C72.2112 26.4467 71.5911 26.8734 70.8899 27.1019C69.2512 27.6914 67.4605 27.7049 65.8131 27.1402C62.1591 25.9483 58.2731 25.0632 54.7351 23.5634C53.6969 23.0994 52.5044 22.756 51.8125 21.8326C51.2616 21.0511 51.0409 20.084 51.1983 19.1409Z" fill="black"/>
    <path d="M40.4677 27.8328C41.3911 25.7558 43.3521 24.5268 45.737 23.3714C47.8062 22.411 50.072 21.9501 52.3519 22.0258C52.4668 22.5913 52.6342 23.1449 52.8519 23.6794C48.7751 25.8718 43.9675 27.7945 40.5831 30.9874C38.9296 29.2944 37.352 27.6402 35.6218 26.0278C35.4734 24.7121 35.4606 23.3847 35.5835 22.0664C36.2521 22.1546 36.8949 22.3812 37.471 22.7317C38.0472 23.0823 38.5439 23.549 38.9296 24.1022C39.8324 25.1466 40.3721 26.4556 40.4677 27.8328Z" fill="#FDB849"/>
    <path d="M73.5438 38.2936C71.3459 34.5319 70.0799 30.299 69.8515 25.9483C69.7355 26.6785 69.0441 27.0636 68.5053 27.6019C67.2732 28.6736 65.962 29.6508 64.5828 30.5251C65.6839 33.9409 66.4439 37.4574 66.8517 41.0231C68.075 41.3896 69.3842 41.3489 70.5823 40.9071C71.8508 40.4478 72.7741 39.3707 73.5438 38.2936Z" fill="black"/>
    <path d="M83.0044 64.7927C83.4278 56.2545 83.6587 51.1395 84.0815 42.6367C84.1975 40.2906 84.3135 37.9062 83.6175 35.6767C82.9215 33.4471 81.2714 31.369 79.0024 30.7925C76.3101 30.1382 73.6183 31.7152 71.2304 33.1386C68.8426 34.5619 65.8845 35.8692 63.3847 34.6767C62.1923 34.0967 61.7694 32.5232 60.577 31.9461C59.4616 31.3661 58.0389 31.8301 57.1155 32.6769C56.2366 33.593 55.5789 34.6981 55.1928 35.9075C50.924 46.7147 51.6931 52.3685 54.4237 63.6756C56.1597 64.639 73.9663 65.4464 83.0044 64.7927Z" fill="#643CFF"/>
    <path d="M66.9666 64.5236C66.8129 63.5619 66.0821 62.254 65.7358 61.3336C65.7741 61.4107 68.7356 61.4107 69.4281 61.4107C73.6587 61.5267 78.12 61.7587 81.8506 63.7951C82.4277 64.1025 83.1196 64.4105 83.0042 64.9487C82.8505 65.5641 82.158 65.6795 81.658 65.6795C79.2299 65.6849 76.8034 65.5565 74.3895 65.295C73.1587 65.179 71.9279 65.1024 70.6972 64.947C70.3126 64.9081 67.0049 64.7138 66.9666 64.5236Z" fill="black"/>
    <path d="M47.2751 46.2936C46.3134 43.2196 42.4674 41.6396 39.3905 42.563C36.3136 43.4864 34.0835 46.333 33.1602 49.447C32.2368 52.5611 32.6219 56.4071 33.4681 59.5234C36.1988 69.8312 38.4678 75.7153 42.16 84.4055C44.3907 85.5979 48.8521 84.9054 50.9291 83.6364C50.3903 77.7905 49.7749 75.2907 49.1595 70.7522C48.5441 66.2137 48.9675 62.9448 47.3522 58.6372C48.5381 54.6042 48.5113 50.3114 47.2751 46.2936Z" fill="#D70A32"/>
    <path d="M55.7379 29.8326C56.1937 30.8161 56.85 31.6936 57.6646 32.4088C58.4792 33.124 59.4342 33.6612 60.4684 33.986C62.6991 34.6013 64.2384 34.218 66.1994 33.1403C67.8225 32.1744 69.1634 30.7992 70.0881 29.1523C71.0127 27.5054 71.4886 25.6445 71.4681 23.7559C71.2759 20.4559 70.508 17.2149 69.1992 14.1795C68.4301 12.4099 66.3148 11.6791 64.507 11.2563C61.1609 10.4872 56.007 10.6026 54.3535 14.2178C53.0073 17.1021 53.0844 21.0618 53.7381 24.0633C54.1366 26.0691 54.8095 28.0104 55.7379 29.8326Z" fill="#F7846C"/>
    <path d="M56.0059 14.9868C56.6244 14.5045 57.3608 14.1967 58.1385 14.0953C58.9163 13.9939 59.707 14.1027 60.4284 14.4103C60.9534 14.1857 61.5282 14.1031 62.0952 14.1705C62.6622 14.238 63.2015 14.4533 63.659 14.7949C64.4838 15.3472 65.1368 16.1201 65.5435 17.0255C66.0075 17.91 66.3131 18.91 66.8514 19.7562C67.07 20.1563 67.3663 20.5086 67.723 20.7926C68.0796 21.0766 68.4895 21.2864 68.9284 21.4098C69.7357 21.6023 71.0048 21.4098 71.5053 20.7561C71.4282 18.5637 70.6202 16.6021 69.6974 14.6023C69.2983 13.6222 68.5615 12.8174 67.6205 12.3333C66.6198 11.7744 65.5628 11.3232 64.467 10.9872C61.121 10.2181 55.6597 10.3718 53.969 14.0252C53.4024 15.582 53.078 17.2165 53.0073 18.8717C53.6581 17.3416 54.6906 16.004 56.0059 14.9868Z" fill="black"/>
    <path d="M58.7746 23.1022C58.121 22.3714 56.9285 21.4098 55.9286 21.5252C54.9286 21.6406 54.0441 22.2172 53.6979 23.6788C53.6979 23.6788 54.4287 24.2559 56.1205 24.1022C57.084 24.0355 58.0067 23.6879 58.7746 23.1022ZM66.3895 22.3326C65.7358 21.6024 64.5433 20.6407 63.5434 20.7561C62.5435 20.8716 61.659 21.4481 61.3127 22.9097C61.3127 22.9097 62.0435 23.4868 63.736 23.3325C64.6993 23.2662 65.622 22.9186 66.3895 22.3326Z" fill="white"/>
    <path d="M56.236 21.5252H55.9286C54.9286 21.6412 54.0441 22.2171 53.6979 23.6787C53.6979 23.6787 54.4287 24.2558 56.1205 24.1021C56.419 24.0726 56.7148 24.021 57.0056 23.9478C56.6517 23.1745 56.3932 22.361 56.236 21.5252ZM63.8897 20.7561H63.5051C62.5052 20.8721 61.6207 21.448 61.2744 22.9096C61.2744 22.9096 62.0052 23.4867 63.6977 23.3325C63.9964 23.3067 64.2923 23.2553 64.5822 23.1788C64.2407 22.407 64.0076 21.5917 63.8897 20.7561Z" fill="black"/>
    <path d="M59.5822 44.6011C55.0915 43.9379 50.5101 44.2661 46.1598 45.5628C45.462 45.4065 44.7557 45.2903 44.0446 45.2148C43.5027 43.7744 42.6641 42.464 41.583 41.3688C41.351 41.1368 41.1985 40.946 40.9676 40.7534C39.3523 35.023 36.8525 29.5594 34.3145 24.177C34.5574 23.5394 34.9536 22.9715 35.4681 22.5234C36.7144 22.8899 37.8377 23.588 38.7183 24.5431C39.5988 25.4982 40.2035 26.6745 40.4677 27.9464C41.8769 26.0103 43.8732 24.5806 46.1598 23.8696C48.3905 23.1005 50.7749 22.9079 53.1599 22.6771C54.4705 23.2712 55.5318 24.3054 56.1596 25.6003C59.0057 31.3324 58.696 38.2936 59.5822 44.6011Z" fill="white"/>
    <path d="M64.3514 28.0636C63.97 28.7225 63.4599 29.2979 62.8515 29.7555C62.5683 29.9779 62.2402 30.1362 61.8899 30.2195C61.5276 30.3282 61.1434 30.3414 60.7745 30.2577C60.5786 30.1874 60.3964 30.0834 60.2363 29.9503C59.9896 29.7551 59.7919 29.5048 59.6592 29.2195C61.1692 28.641 62.7454 28.2527 64.3514 28.0636Z" fill="#DD4040"/>
    <path d="M60.2747 27.8327C59.5821 27.9093 58.7748 28.1018 58.4668 28.5247C58.2748 28.7567 58.5439 29.2555 58.9308 29.3709C59.1081 29.4045 59.2887 29.4176 59.469 29.4097C60.5567 29.2673 61.6261 29.0092 62.659 28.6401C63.1979 28.4864 64.428 28.1401 64.6206 27.871C63.4281 28.1401 61.6208 27.7173 60.2747 27.8327Z" fill="black"/>
</svg>