<svg width="26" height="24" viewBox="0 0 26 24" fill="none" xmlns="http://www.w3.org/2000/svg">
    <path d="M7.8 12C10.3147 12 12.35 9.31607 12.35 6C12.35 2.68393 10.3147 0 7.8 0C5.28531 0 3.25 2.68393 3.25 6C3.25 9.31607 5.28531 12 7.8 12ZM10.92 13.7143H10.5828C9.73781 14.25 8.79937 14.5714 7.8 14.5714C6.80062 14.5714 5.86625 14.25 5.01719 13.7143H4.68C2.09625 13.7143 0 16.4786 0 19.8857V21.4286C0 22.8482 0.873437 24 1.95 24H13.65C14.7266 24 15.6 22.8482 15.6 21.4286V19.8857C15.6 16.4786 13.5037 13.7143 10.92 13.7143ZM19.5 12C21.6531 12 23.4 9.69643 23.4 6.85714C23.4 4.01786 21.6531 1.71429 19.5 1.71429C17.3469 1.71429 15.6 4.01786 15.6 6.85714C15.6 9.69643 17.3469 12 19.5 12ZM21.45 13.7143H21.2956C20.7309 13.9714 20.1337 14.1429 19.5 14.1429C18.8662 14.1429 18.2691 13.9714 17.7044 13.7143H17.55C16.7212 13.7143 15.9575 14.0304 15.2872 14.5393C16.2784 15.9482 16.9 17.8179 16.9 19.8857V21.9429C16.9 22.0607 16.8797 22.1732 16.8756 22.2857H24.05C25.1266 22.2857 26 21.1339 26 19.7143C26 16.3982 23.9647 13.7143 21.45 13.7143Z" fill="#AB70DF"/>
</svg>

