<svg width="34" height="34" viewBox="0 0 34 34" fill="none" xmlns="http://www.w3.org/2000/svg">
    <path d="M18.352 1.12625C18.0651 1.38125 15.8339 5.80922 15.8339 5.80922L14.1737 12.5056L20.6337 11.9133C20.6337 11.9133 26.0073 1.92047 26.1162 1.68937C26.3101 1.26969 26.4137 1.09703 25.6726 1.09703C24.9315 1.09437 18.6203 0.887186 18.352 1.12625Z" fill="#176CC7"/>
    <path d="M21.6962 11.4989C21.3748 11.3262 11.9079 11.1775 11.6848 11.4989C11.4829 11.7911 11.5971 13.3237 11.6742 13.507C11.8123 13.8258 14.8696 15.215 14.8696 15.215L14.8112 15.8472C14.8112 15.8472 15.0609 15.9109 16.8379 15.9109C18.615 15.9109 18.9656 15.8206 18.9656 15.8206L18.9709 15.2495C18.9709 15.2495 21.7228 13.9108 21.8609 13.7248C21.9778 13.5708 22.0176 11.6716 21.6962 11.4989ZM18.8779 13.9214C18.8779 13.9214 18.9656 13.5309 18.7823 13.4406C18.599 13.3476 15.454 13.3901 15.2043 13.4034C14.9546 13.4167 14.9546 13.863 14.9546 13.863L12.9731 12.843L12.9359 12.4631L20.4531 12.5162L20.4265 12.8748L18.8779 13.9214Z" fill="#F79429"/>
    <path d="M15.7409 13.7833C15.4912 13.7833 15.3478 14.0436 15.3478 14.4925C15.3478 14.9122 15.4912 15.2655 15.8073 15.2389C16.0676 15.2177 16.1579 14.8192 16.134 14.4659C16.1101 14.0436 16.057 13.7833 15.7409 13.7833Z" fill="#FDFFFF"/>
    <path d="M7.78552 24.4614C7.78552 30.8258 13.5522 33.4741 17.3799 33.3599C21.8397 33.227 26.6369 29.843 26.2411 23.7708C25.8693 18.0731 21.0721 15.4594 16.8805 15.4886C12.009 15.5258 7.78552 18.9019 7.78552 24.4614Z" fill="#F79429"/>
    <path d="M17.178 32.3983C17.1116 32.3983 17.0425 32.3983 16.9761 32.3956C14.9839 32.3292 13.0156 31.4899 11.576 30.0953C10.0353 28.6025 9.19065 26.5838 9.20127 24.4136C9.22518 19.1144 13.8577 16.6573 17 16.6573H17.0266C21.2846 16.6759 24.7802 19.9856 24.8785 24.472C24.921 26.4695 24.2835 28.4564 22.6791 30.0342C21.181 31.5005 19.0135 32.3983 17.178 32.3983ZM16.9947 17.5392C14.1764 17.5392 10.0088 19.8449 9.99815 24.4136C9.99018 27.8295 12.6358 31.3411 17.0425 31.4899C18.7213 31.543 20.6152 30.9214 22.0097 29.5508C23.46 28.1244 24.1108 26.265 24.0816 24.4853C24.0178 20.6258 20.8622 17.5552 17.0319 17.5392C17.0239 17.5339 17.0027 17.5392 16.9947 17.5392Z" fill="#D25116"/>
    <path d="M15.4302 16.328C15.2469 16.0756 13.3689 16.1473 11.3475 17.8872C9.33939 19.6164 9.03924 21.5289 9.40049 21.6298C9.81221 21.7441 10.3142 19.8953 12.0488 18.3414C13.6425 16.9203 15.7941 16.83 15.4302 16.328ZM23.5025 23.2794C22.8624 23.3697 23.5264 25.2875 22.0416 27.4337C20.7533 29.2958 19.2924 29.9705 19.4624 30.3795C19.6908 30.9267 22.031 29.5641 23.1147 27.3434C24.0949 25.3327 23.978 23.2103 23.5025 23.2794Z" fill="#FEFFFA"/>
    <path d="M6.77605 0.988114C6.60871 1.14218 13.0076 12.5375 13.0076 12.5375C13.0076 12.5375 14.0807 12.6756 16.4767 12.6969C18.8726 12.7181 20.06 12.5587 20.06 12.5587C20.06 12.5587 15.0848 1.10233 14.7873 0.988114C14.6412 0.929676 12.6703 0.908426 10.7445 0.887176C8.81605 0.86327 6.93543 0.839364 6.77605 0.988114Z" fill="#2E9DF4"/>
    <path d="M19.9086 22.2355C19.6005 19.5659 16.4927 19.3428 15.2044 20.3681C13.9507 21.3669 14.0702 22.7587 14.9494 22.9208C15.6427 23.0483 15.8233 22.4984 16.0252 22.2461C16.4821 21.6803 17.2099 21.6272 17.6854 22.0814C18.2246 22.5994 17.8925 23.8372 17.0824 23.8877C16.4794 23.9248 16.1739 23.893 16.0969 23.9966C15.988 24.1427 16.0039 25.2928 16.1155 25.4203C16.243 25.5664 16.753 25.4761 17.1913 25.492C17.7943 25.5159 18.4344 26.4084 18.0121 27.0778C17.5738 27.7711 16.4077 27.4603 15.988 27.0406C15.4329 26.4855 14.8777 26.8042 14.6918 27.022C14.3996 27.3673 14.0888 28.1536 15.1672 28.9186C16.243 29.6836 19.5075 29.8297 20.1663 27.4603C20.74 25.3911 19.4013 24.5411 19.4013 24.5411C19.4013 24.5411 20.0839 23.7575 19.9086 22.2355Z" fill="#D25116"/>
</svg>

