<svg width="27" height="29" viewBox="0 0 27 29" fill="none" xmlns="http://www.w3.org/2000/svg">
    <path d="M20.7676 1.11736C20.7679 0.896471 20.7072 0.680439 20.5932 0.496652C20.4791 0.312864 20.3168 0.169598 20.1268 0.085014C19.9368 0.000430438 19.7277 -0.0216606 19.526 0.0215414C19.3244 0.0647433 19.1392 0.171293 18.9939 0.327682L14.8402 4.78913C14.7439 4.8929 14.6675 5.01606 14.6154 5.15156C14.5634 5.28706 14.5368 5.43224 14.537 5.57881V11.8092L12.9981 13.46C12.6902 13.3722 12.3677 13.3615 12.0554 13.4288C11.7431 13.496 11.4493 13.6393 11.1967 13.8477C10.9441 14.0561 10.7394 14.324 10.5984 14.6308C10.4573 14.9375 10.3838 15.275 10.3833 15.6171C10.3834 15.9345 10.4466 16.2483 10.5687 16.5374C10.6908 16.8265 10.8689 17.0843 11.0912 17.2936C11.3135 17.5029 11.5748 17.6587 11.8576 17.7508C12.1405 17.8429 12.4384 17.8691 12.7314 17.8277C13.0244 17.7862 13.3059 17.678 13.5569 17.5104C13.8078 17.3428 14.0226 17.1195 14.1869 16.8556C14.3511 16.5916 14.461 16.2931 14.5092 15.9799C14.5574 15.6666 14.5428 15.346 14.4664 15.0393L16.0053 13.3863H21.806C21.9425 13.3866 22.0776 13.358 22.2038 13.3021C22.3299 13.2462 22.4446 13.1642 22.5412 13.0607L26.6949 8.59921C26.8405 8.44322 26.9397 8.2443 26.9799 8.02768C27.0202 7.81106 26.9996 7.58648 26.9208 7.38243C26.8421 7.17838 26.7087 7.00404 26.5376 6.88151C26.3665 6.75898 26.1654 6.69378 25.9597 6.69417H20.7676V1.11736ZM24.805 13.7834C25.1624 16.561 24.6985 19.3891 23.4789 21.8683C22.2593 24.3476 20.3456 26.3528 18.0079 27.6009C15.6702 28.849 13.0265 29.2771 10.4501 28.8245C7.87374 28.372 5.49474 27.0618 3.64893 25.0789C1.80313 23.0959 0.583768 20.5404 0.162962 17.7731C-0.257843 15.0057 0.141167 12.1663 1.30367 9.65561C2.46617 7.14493 4.33344 5.08982 6.64191 3.78036C8.95037 2.47091 11.5834 1.97325 14.1694 2.35764L13.374 3.21201C13.0843 3.52269 12.8546 3.89163 12.6978 4.29774C12.541 4.70385 12.4602 5.13916 12.4601 5.57881C10.6117 5.57881 8.80478 6.16754 7.26787 7.27056C5.73095 8.37358 4.53307 9.94134 3.8257 11.7756C3.11834 13.6098 2.93326 15.6282 3.29387 17.5754C3.65448 19.5227 4.54459 21.3113 5.85163 22.7152C7.15867 24.1191 8.82394 25.0751 10.6369 25.4625C12.4498 25.8498 14.3289 25.651 16.0366 24.8912C17.7444 24.1314 19.204 22.8448 20.2309 21.194C21.2579 19.5432 21.806 17.6025 21.806 15.6171C22.6319 15.6163 23.4238 15.2632 24.0075 14.6356L24.805 13.7834ZM12.4601 7.80954C11.0225 7.80954 9.61709 8.26744 8.42171 9.12534C7.22633 9.98324 6.29464 11.2026 5.74447 12.6293C5.19429 14.0559 5.05034 15.6257 5.33082 17.1402C5.61129 18.6548 6.3036 20.0459 7.32019 21.1378C8.33677 22.2297 9.63199 22.9733 11.042 23.2746C12.4521 23.5758 13.9136 23.4212 15.2419 22.8303C16.5701 22.2394 17.7054 21.2387 18.5041 19.9547C19.3028 18.6708 19.7291 17.1613 19.7291 15.6171H16.8652L16.6056 15.8959C16.5556 16.7529 16.2765 17.5762 15.8017 18.267C15.3269 18.9578 14.6766 19.4868 13.9288 19.7905C13.1811 20.0941 12.3676 20.1595 11.5861 19.9789C10.8045 19.7982 10.0881 19.3792 9.52283 18.772C8.95754 18.1648 8.56739 17.3954 8.3992 16.5559C8.23101 15.7165 8.29192 14.8427 8.57463 14.0396C8.85733 13.2364 9.34982 12.5379 9.99299 12.0279C10.6362 11.518 11.4027 11.2182 12.2005 11.1645L12.4601 10.8857V7.80954Z" fill="#DC3F00"/>
</svg>

