<svg width="26" height="24" viewBox="0 0 26 24" fill="none" xmlns="http://www.w3.org/2000/svg">
    <path d="M15.439 24H10.5618C10.2562 24 9.95978 23.9065 9.72168 23.735C9.48358 23.5634 9.31811 23.3241 9.25271 23.0568L8.70737 20.796C7.97988 20.5105 7.29007 20.1535 6.65062 19.7316L4.18923 20.4336C3.89788 20.5168 3.58352 20.5083 3.29835 20.4094C3.01318 20.3105 2.77436 20.1272 2.62154 19.89L0.177565 16.1088C0.026351 15.8714 -0.030411 15.595 0.0165658 15.3249C0.0635425 15.0548 0.211476 14.807 0.436166 14.622L2.34552 13.062C2.25869 12.3553 2.25869 11.6423 2.34552 10.9356L0.436166 9.3792C0.211158 9.19413 0.063023 8.94609 0.0160387 8.67574C-0.0309457 8.40539 0.026008 8.12876 0.177565 7.8912L2.61618 4.1076C2.769 3.87038 3.00782 3.68711 3.29299 3.58823C3.57817 3.48934 3.89252 3.48079 4.18387 3.564L6.64526 4.266C6.9722 4.05 7.31253 3.8484 7.66359 3.666C8.00258 3.4956 8.35096 3.3408 8.70737 3.2028L9.25405 0.9444C9.31913 0.677037 9.48429 0.437625 9.72214 0.265859C9.95999 0.0940918 10.2562 0.000287959 10.5618 0H15.439C15.7446 0.000287959 16.0408 0.0940918 16.2787 0.265859C16.5165 0.437625 16.6817 0.677037 16.7468 0.9444L17.2988 3.204C18.0254 3.49112 18.715 3.84801 19.3556 4.2684L21.8183 3.5664C22.1095 3.4835 22.4235 3.4922 22.7084 3.59107C22.9933 3.68994 23.2319 3.87304 23.3846 4.11L25.8233 7.8936C26.1341 8.382 26.0269 9 25.5647 9.3804L23.6553 10.9404C23.7421 11.6471 23.7421 12.3601 23.6553 13.0668L25.5647 14.6268C26.0269 15.0084 26.1341 15.6252 25.8233 16.1136L23.3846 19.8972C23.2318 20.1344 22.993 20.3177 22.7078 20.4166C22.4227 20.5155 22.1083 20.524 21.817 20.4408L19.3556 19.7388C18.7166 20.1604 18.0272 20.517 17.3002 20.802L16.7468 23.0568C16.6814 23.3239 16.5162 23.5631 16.2783 23.7346C16.0405 23.9061 15.7444 23.9998 15.439 24ZM12.9951 7.2C11.5736 7.2 10.2104 7.70571 9.20524 8.60589C8.20012 9.50606 7.63545 10.727 7.63545 12C7.63545 13.273 8.20012 14.4939 9.20524 15.3941C10.2104 16.2943 11.5736 16.8 12.9951 16.8C14.4165 16.8 15.7797 16.2943 16.7849 15.3941C17.79 14.4939 18.3547 13.273 18.3547 12C18.3547 10.727 17.79 9.50606 16.7849 8.60589C15.7797 7.70571 14.4165 7.2 12.9951 7.2Z" fill="black" fill-opacity="0.5"/>
</svg>

