<svg width="38" height="18" viewBox="0 0 38 18" fill="none" xmlns="http://www.w3.org/2000/svg">
    <path d="M14.6564 3.344C13.5378 2.22494 12.1125 1.46278 10.5607 1.1539C9.00894 0.845021 7.40043 1.00331 5.93862 1.60874C4.47681 2.21417 3.22736 3.23954 2.34828 4.55519C1.46921 5.87083 1 7.41765 1 9C1 10.5824 1.46921 12.1292 2.34828 13.4448C3.22736 14.7605 4.47681 15.7858 5.93862 16.3913C7.40043 16.9967 9.00894 17.155 10.5607 16.8461C12.1125 16.5372 13.5378 15.7751 14.6564 14.656C16.4314 13.0461 17.9027 11.1304 19 9C20.0973 6.86964 21.5686 4.95386 23.3436 3.344C24.4622 2.22494 25.8875 1.46278 27.4393 1.1539C28.9911 0.845021 30.5996 1.00331 32.0614 1.60874C33.5232 2.21417 34.7726 3.23954 35.6517 4.55519C36.5308 5.87083 37 7.41765 37 9C37 10.5824 36.5308 12.1292 35.6517 13.4448C34.7726 14.7605 33.5232 15.7858 32.0614 16.3913C30.5996 16.9967 28.9911 17.155 27.4393 16.8461C25.8875 16.5372 24.4622 15.7751 23.3436 14.656C21.5686 13.0461 20.0973 11.1304 19 9C17.9027 6.86964 16.4314 4.95386 14.6564 3.344" stroke="#DC3F00" stroke-width="2" stroke-linecap="round" stroke-linejoin="round"/>
</svg>

