<svg width="32" height="29" viewBox="0 0 32 29" fill="none" xmlns="http://www.w3.org/2000/svg">
    <path d="M31.002 4.09238C29.6618 1.3295 25.8012 -0.931044 21.3106 0.385094C19.1647 1.00774 17.2925 2.34301 15.9998 4.17276C14.7071 2.34301 12.8349 1.00774 10.689 0.385094C6.18834 -0.91095 2.33777 1.3295 0.997572 4.09238C-0.882704 7.96042 -0.102589 12.3107 3.31791 17.0227C5.99831 20.7099 9.82887 24.4473 15.3897 28.7875C15.5654 28.9252 15.7819 29 16.0048 29C16.2276 29 16.4441 28.9252 16.6199 28.7875C22.1707 24.4573 26.0113 20.7501 28.6916 17.0227C32.1021 12.3107 32.8823 7.96042 31.002 4.09238Z" fill="#DC3F00"/>
</svg>

